<svg id="Layer_1" data-name="Layer 1" xmlns="http://www.w3.org/2000/svg" xmlns:xlink="http://www.w3.org/1999/xlink" viewBox="0 0 25 15"><defs><style>.cls-1{fill:none;}.cls-2{fill:#0eb8ad;}.cls-3{fill:#25245e;}.cls-4{fill:#e82352;}.cls-5{fill:#f8b03c;}.cls-6{fill:url(#linear-gradient);}.cls-7{opacity:0.1;}.cls-8{fill:#003ca7;}.cls-9{fill:url(#New_Pattern_Swatch_5);}.cls-10{fill:url(#New_Pattern_Swatch_6);}.cls-11{fill:#d9e021;}.cls-12{fill:url(#New_Pattern_Swatch_7);}.cls-13{fill:url(#New_Pattern_Swatch_4);}</style><linearGradient id="linear-gradient" x1="7.5" y1="2.5" x2="30.12" y2="25.12" gradientUnits="userSpaceOnUse"><stop offset="0" stop-color="#fff"/><stop offset="0.63" stop-color="#e6e6e8"/></linearGradient><pattern id="New_Pattern_Swatch_5" data-name="New Pattern Swatch 5" width="3" height="3" patternUnits="userSpaceOnUse" viewBox="0 0 3 3"><rect class="cls-1" width="3" height="3"/><rect class="cls-3" width="3" height="3"/></pattern><pattern id="New_Pattern_Swatch_6" data-name="New Pattern Swatch 6" width="3" height="3" patternUnits="userSpaceOnUse" viewBox="0 0 3 3"><rect class="cls-1" width="3" height="3"/><rect class="cls-4" width="3" height="3"/></pattern><pattern id="New_Pattern_Swatch_7" data-name="New Pattern Swatch 7" width="3" height="3" patternUnits="userSpaceOnUse" viewBox="0 0 3 3"><rect class="cls-1" width="3" height="3"/><rect class="cls-5" width="3" height="3"/></pattern><pattern id="New_Pattern_Swatch_4" data-name="New Pattern Swatch 4" width="3" height="3" patternUnits="userSpaceOnUse" viewBox="0 0 3 3"><rect class="cls-1" width="3" height="3"/><rect class="cls-2" width="3" height="3"/></pattern></defs><title>bg</title><rect class="cls-6" width="25" height="15"/><g class="cls-7"><path class="cls-8" d="M12.76,15a.61.61,0,0,1-.23-.17l-.1-.09a1.87,1.87,0,0,1-.35-.38,1,1,0,0,1-.1-.91,6.78,6.78,0,0,1,.28-.74l.09-.21a5.48,5.48,0,0,0,.4-1.25,1.31,1.31,0,0,0-.29-1.05,1.13,1.13,0,0,0-.86-.41h-.12l-.25,0a.42.42,0,0,1-.36-.34,1.1,1.1,0,0,1,0-.31,5.09,5.09,0,0,0-.05-.83A1.48,1.48,0,0,0,9.84,7L9.49,6.9c-.19-.08-.39-.16-.59-.25a2.68,2.68,0,0,1-1.12-1l-.11-.19a5.57,5.57,0,0,0-.33-.51.73.73,0,0,0-.59-.35.93.93,0,0,0-.47.15A2.31,2.31,0,0,0,5.14,6.53a3.46,3.46,0,0,0,.07,1.21l0,.2c0,.18.09.37.11.55a2.6,2.6,0,0,1,0,.88,4.16,4.16,0,0,1-.45,1.28,1.33,1.33,0,0,1-1,.71l-.42,0A3.6,3.6,0,0,1,1.92,11l-.22-.11a4.42,4.42,0,0,0-.72-.3,2.73,2.73,0,0,0-.62-.1H.08l0,0v-1H.16a4,4,0,0,1,1.73.76,4.88,4.88,0,0,0,.7.47,2,2,0,0,0,.88.25h.07a1.13,1.13,0,0,0,1-.57A2.63,2.63,0,0,0,4.94,9a3.41,3.41,0,0,0-.12-.91A4,4,0,0,1,4.68,7,4.27,4.27,0,0,1,5,5.3a3.38,3.38,0,0,1,.46-.7l.21-.26c.22-.27.44-.55.69-.8a3.27,3.27,0,0,1,.41-.37,3.18,3.18,0,0,0,.76-.82,6.61,6.61,0,0,1,.8-1A6.75,6.75,0,0,1,9,.83l.1-.08A1.45,1.45,0,0,0,9.57.11.22.22,0,0,1,9.62,0h1.2a.13.13,0,0,1,0,.08,1.64,1.64,0,0,0,.4.7,4.89,4.89,0,0,1,.91,1.45,3.71,3.71,0,0,0,.52,1,4.08,4.08,0,0,0,.69.67l.17.13c.26.2.53.41.8.59a1.24,1.24,0,0,0,.61.21h0a.84.84,0,0,0,.63-.29,2.48,2.48,0,0,0,.42-.64c.14-.28.25-.58.37-.87l.12-.31A6.48,6.48,0,0,1,16.88,2,1,1,0,0,0,17,1.35a6.37,6.37,0,0,1-.08-1,1.14,1.14,0,0,1,0-.13.86.86,0,0,0,0-.12.06.06,0,0,1,0,0H18a.17.17,0,0,1,.07.09,2.35,2.35,0,0,0,.22.42,1.38,1.38,0,0,0,1,.59,1.79,1.79,0,0,0,.29,0h.18l.32,0a3.94,3.94,0,0,1,.72.07,1,1,0,0,1,.76.89,2.47,2.47,0,0,1,0,.71,1.22,1.22,0,0,1-1,1,1.68,1.68,0,0,1-.35,0,1.75,1.75,0,0,1-.79-.19c-.17-.09-.34-.19-.51-.3l-.2-.12a2.69,2.69,0,0,0-.34-.17,1,1,0,0,0-.38-.08,1.14,1.14,0,0,0-.59.18,1.94,1.94,0,0,0-.62.64,7.1,7.1,0,0,0-.45.85L16.27,5a1.84,1.84,0,0,1-.26.41.83.83,0,0,1-.62.28H15.3a1.67,1.67,0,0,1-1.14-.49l-.54-.49-1-.87a3.76,3.76,0,0,1-.81-1.1v0a2.92,2.92,0,0,0-.55-.84,1.45,1.45,0,0,0-1-.47h0a.81.81,0,0,0-.63.33,2.73,2.73,0,0,0-.27.4,10.68,10.68,0,0,1-1,1.35,1.58,1.58,0,0,0-.35.73,1.83,1.83,0,0,0,.1.94A1.78,1.78,0,0,0,9.32,6.25c.18.07.36.12.54.18l.39.12a1.77,1.77,0,0,1,1,.89c.07.12.13.25.19.38l.13.28a2.57,2.57,0,0,0,.73.85,6.9,6.9,0,0,1,.91.85,9,9,0,0,1,.75,1c.15.24.29.34.46.34a1,1,0,0,0,.43-.14,1.85,1.85,0,0,0,.78-.84A8.76,8.76,0,0,0,16.09,9,3.91,3.91,0,0,0,16.3,8c0-.17,0-.34,0-.51s0-.3,0-.45a2.24,2.24,0,0,1,.07-.5A.68.68,0,0,1,17,6a2.76,2.76,0,0,1,.42,0,1.63,1.63,0,0,1,.88.24,2.21,2.21,0,0,1,.74.79,3.53,3.53,0,0,1,.46,1.5v.13a3.32,3.32,0,0,0,.15.86,1.12,1.12,0,0,0,.47.65.83.83,0,0,0,.25.1h.1a.39.39,0,0,0,.36-.27A2.71,2.71,0,0,0,21,9.38V9.33a4.24,4.24,0,0,1,.36-1.22,3.56,3.56,0,0,1,.53-.79c.2-.21.41-.42.62-.61l.17-.16a7.3,7.3,0,0,0,.75-.84,10.38,10.38,0,0,1,.9-1c.16-.15.33-.32.56-.51l0,0,0,0V6a1.13,1.13,0,0,1-.34.35,5.69,5.69,0,0,1-.85.5l-.22.11a7.44,7.44,0,0,0-.9.49,2.34,2.34,0,0,0-1,1.36,2.13,2.13,0,0,0-.08.56v.1a2.92,2.92,0,0,0,0,.55,1,1,0,0,0,.62.8,4.1,4.1,0,0,0,.59.2L23,11a5.3,5.3,0,0,1,1.08.42,1.52,1.52,0,0,1,.79,1.21,1.68,1.68,0,0,1-.19,1.05,1,1,0,0,1-.52.44,3.46,3.46,0,0,1-.55.18l-.14,0h0a3.38,3.38,0,0,0-.43.14,1,1,0,0,0-.4.35l-.07.08h-.77a.2.2,0,0,1,0-.12v0a2.29,2.29,0,0,0-.11-.47.42.42,0,0,0-.3-.28,3.14,3.14,0,0,0-.51-.08l-.77-.07h-.26a1.73,1.73,0,0,0-1.18.4,1.82,1.82,0,0,0-.43.58.2.2,0,0,1-.07.09h-.82s0,0,0-.07a1.88,1.88,0,0,1,.34-.6,2.8,2.8,0,0,1,1.41-.92,1.76,1.76,0,0,1,.42-.05h.43a3,3,0,0,0,.39,0,.74.74,0,0,0,.52-.25.59.59,0,0,0,.12-.23,1.51,1.51,0,0,0-.52-1.6l-.11-.08c-.16-.11-.33-.22-.48-.35a2.12,2.12,0,0,1-.74-1.32A5.51,5.51,0,0,1,19,8.72a3.37,3.37,0,0,0-.14-1,1.8,1.8,0,0,0-.6-.9,1,1,0,0,0-.6-.22l-.2,0a.77.77,0,0,0-.56.51,2.08,2.08,0,0,0-.12.63,15,15,0,0,1-.23,1.87c0,.26-.07.53-.1.79v.11A2.18,2.18,0,0,1,16,11.77c-.09.11-.19.21-.29.3l-.18.19a1.8,1.8,0,0,0-.44.82L15,13.4c0,.15-.07.31-.12.47s-.17.53-.26.78l-.09.24a.13.13,0,0,1-.05.06H12.76m0,0h1.76a.17.17,0,0,0,.08-.09c.12-.34.26-.67.35-1s.13-.53.19-.79a1.77,1.77,0,0,1,.43-.8c.16-.17.32-.32.47-.49a2.23,2.23,0,0,0,.48-1.26c0-.3,0-.6.1-.9a15.13,15.13,0,0,0,.23-1.87A2,2,0,0,1,17,7.14a.73.73,0,0,1,.53-.49l.19,0a.94.94,0,0,1,.58.21,1.77,1.77,0,0,1,.58.88,3.32,3.32,0,0,1,.14,1,5.35,5.35,0,0,0,.06.75,2.15,2.15,0,0,0,.76,1.35c.19.16.39.29.59.43a1.45,1.45,0,0,1,.5,1.56.55.55,0,0,1-.11.21.7.7,0,0,1-.5.24,2.87,2.87,0,0,1-.39,0h-.43a1.84,1.84,0,0,0-.43.05,2.88,2.88,0,0,0-1.43.93,2,2,0,0,0-.34.62s0,.09,0,.13h.84a.23.23,0,0,0,.09-.11,1.81,1.81,0,0,1,.42-.57,1.7,1.7,0,0,1,1.16-.39H20l.77.07a3.26,3.26,0,0,1,.5.08.38.38,0,0,1,.27.25,2.3,2.3,0,0,1,.1.46.28.28,0,0,0,.06.19h.8a.48.48,0,0,0,.09-.1.89.89,0,0,1,.38-.33,3.22,3.22,0,0,1,.44-.14,4.4,4.4,0,0,0,.69-.22,1.08,1.08,0,0,0,.54-.46,1.71,1.71,0,0,0,.19-1.08,1.57,1.57,0,0,0-.81-1.23A5.25,5.25,0,0,0,23,11a5.88,5.88,0,0,1-.76-.25,1,1,0,0,1-.6-.78,3.54,3.54,0,0,1,0-.64,2.07,2.07,0,0,1,.08-.55,2.3,2.3,0,0,1,1-1.33,9.8,9.8,0,0,1,1.11-.6,5.74,5.74,0,0,0,.85-.51A1.16,1.16,0,0,0,25,6V4.06h0s-.07,0-.1.07c-.19.17-.38.34-.56.52a10.53,10.53,0,0,0-.9,1,7.46,7.46,0,0,1-.74.83c-.27.25-.54.5-.8.77a3.61,3.61,0,0,0-.54.79A4.24,4.24,0,0,0,21,9.32a2.9,2.9,0,0,1-.15.63.35.35,0,0,1-.32.24H20.4a.77.77,0,0,1-.24-.1,1.07,1.07,0,0,1-.45-.63,3.89,3.89,0,0,1-.16-1A3.55,3.55,0,0,0,19.09,7a2.24,2.24,0,0,0-.76-.8,1.68,1.68,0,0,0-.9-.24A2.78,2.78,0,0,0,17,6a.72.72,0,0,0-.62.54A2.23,2.23,0,0,0,16.3,7c0,.32,0,.64,0,1a3.86,3.86,0,0,1-.21,1,8.5,8.5,0,0,1-.5,1.11,1.8,1.8,0,0,1-.76.83,1,1,0,0,1-.41.14c-.15,0-.28-.09-.43-.32a9.14,9.14,0,0,0-.75-1,7,7,0,0,0-.91-.86,2.54,2.54,0,0,1-.72-.83c-.11-.22-.2-.44-.32-.66a1.81,1.81,0,0,0-1-.91c-.31-.1-.62-.18-.93-.3A1.75,1.75,0,0,1,8.22,5.13a1.82,1.82,0,0,1-.1-.92,1.53,1.53,0,0,1,.34-.71,10.76,10.76,0,0,0,1-1.35,2.75,2.75,0,0,1,.27-.39.78.78,0,0,1,.6-.31h0a1.44,1.44,0,0,1,.94.46,3,3,0,0,1,.55.85,3.8,3.8,0,0,0,.82,1.11l1.5,1.35a1.73,1.73,0,0,0,1.17.5h.1A.86.86,0,0,0,16,5.42,1.86,1.86,0,0,0,16.31,5a10,10,0,0,1,.57-1.1,1.91,1.91,0,0,1,.61-.62,1.1,1.1,0,0,1,.57-.18.91.91,0,0,1,.36.08,2.7,2.7,0,0,1,.34.17c.23.14.46.3.71.42a1.8,1.8,0,0,0,.8.2,1.69,1.69,0,0,0,.35,0,1.26,1.26,0,0,0,1-1.08,2.56,2.56,0,0,0,0-.72,1,1,0,0,0-.79-.92,7.25,7.25,0,0,0-1-.09c-.16,0-.31,0-.47,0a1.34,1.34,0,0,1-1-.58,2.38,2.38,0,0,1-.22-.42A.2.2,0,0,0,18,0H16.95a.12.12,0,0,0,0,.08c0,.08,0,.17,0,.25a6.23,6.23,0,0,0,.08,1,.91.91,0,0,1-.11.62,6.63,6.63,0,0,0-.34.74c-.16.39-.3.8-.49,1.18a2.51,2.51,0,0,1-.42.63.81.81,0,0,1-.6.28h0a1.2,1.2,0,0,1-.58-.2c-.34-.22-.65-.47-1-.72a4,4,0,0,1-.68-.66,3.65,3.65,0,0,1-.52-1A5,5,0,0,0,11.3.79a1.61,1.61,0,0,1-.39-.68A.17.17,0,0,0,10.84,0H9.61a.32.32,0,0,0-.08.1,1.42,1.42,0,0,1-.48.63,8,8,0,0,0-.72.6,6.72,6.72,0,0,0-.81,1,3.15,3.15,0,0,1-.75.81,3.32,3.32,0,0,0-.42.38c-.32.34-.6.71-.9,1.06A3.45,3.45,0,0,0,5,5.28,4.28,4.28,0,0,0,4.64,7a4.08,4.08,0,0,0,.13,1.18A3.32,3.32,0,0,1,4.9,9a2.57,2.57,0,0,1-.37,1.29,1.09,1.09,0,0,1-1,.55H3.47a2,2,0,0,1-.86-.25,4.88,4.88,0,0,1-.7-.47A4.06,4.06,0,0,0,.17,9.4l-.09,0a.1.1,0,0,0-.07,0v1.08a.1.1,0,0,0,.08,0h0l.26,0a2.68,2.68,0,0,1,.61.1,6.26,6.26,0,0,1,.94.4,3.68,3.68,0,0,0,1.55.37,3,3,0,0,0,.43,0,1.37,1.37,0,0,0,1-.72,4.22,4.22,0,0,0,.45-1.29,2.65,2.65,0,0,0,0-.89c0-.25-.1-.5-.16-.75a3.42,3.42,0,0,1-.07-1.2A2.27,2.27,0,0,1,6.31,4.77a.91.91,0,0,1,.45-.14A.69.69,0,0,1,7.31,5c.17.22.3.46.44.7a2.7,2.7,0,0,0,1.14,1c.31.15.63.26.94.39a1.45,1.45,0,0,1,.92,1.18,5,5,0,0,1,.05.83,1.17,1.17,0,0,0,0,.32.46.46,0,0,0,.39.37l.25,0h.12A1.19,1.19,0,0,1,12.7,11.2a5.47,5.47,0,0,1-.39,1.25,9.45,9.45,0,0,0-.37.95,1.08,1.08,0,0,0,.1.95,1.91,1.91,0,0,0,.36.38c.11.09.2.23.35.27Z"/><path class="cls-8" d="M.09,5.92l0,0V5.29l.06,0H.56a2,2,0,0,0,.67-.1,1.88,1.88,0,0,0,1-.93,2.79,2.79,0,0,0,.3-1.17,7.71,7.71,0,0,0,0-.86,4.74,4.74,0,0,0-.09-.87A.66.66,0,0,0,2,.84,3.56,3.56,0,0,0,1.23.69C1,.68.85.67.67.67H.1L0,.67V.5C0,.36,0,.21,0,.07V0H3.12a.74.74,0,0,0,.37.1.79.79,0,0,0,.21,0l.12,0L4,0h.94s0,0,0,.08a2.13,2.13,0,0,1-.52.5L4.19.75a5.73,5.73,0,0,0-.5.35,1.5,1.5,0,0,0-.48.8,5,5,0,0,0-.15,1v0a3.83,3.83,0,0,1-.37,1.48,3.1,3.1,0,0,1-.3.45,2.76,2.76,0,0,1-1.68,1l-.59.09h0m0,0h0l.6-.09a2.78,2.78,0,0,0,1.71-1,3.1,3.1,0,0,0,.3-.46,3.85,3.85,0,0,0,.38-1.5,5.18,5.18,0,0,1,.15-1,1.48,1.48,0,0,1,.46-.78c.22-.18.46-.32.69-.48A2.17,2.17,0,0,0,4.94.14S5,.06,5,0H4c-.1,0-.2,0-.3.07l-.2,0A.7.7,0,0,1,3.13,0H.07C0,0,0,0,0,.07S0,.48,0,.68a.12.12,0,0,0,.1,0H.67c.19,0,.37,0,.56,0A3.49,3.49,0,0,1,2,.88a.62.62,0,0,1,.41.48,4.73,4.73,0,0,1,.09.87,7.63,7.63,0,0,1,0,.86,2.76,2.76,0,0,1-.3,1.16,1.85,1.85,0,0,1-1,.91,2,2,0,0,1-.66.09H.1a.12.12,0,0,0-.1,0v.64A.1.1,0,0,0,.09,6Z"/><path class="cls-8" d="M5.35,15a3,3,0,0,1,.23-.81,8,8,0,0,1,.54-1l.18-.3,0,0a8.07,8.07,0,0,1,.52-.84,2.31,2.31,0,0,1,1.53-1l.25,0a1.07,1.07,0,0,1,.84.36,1.48,1.48,0,0,1,.27.54,7.31,7.31,0,0,1,.25,1l0,.08a5.52,5.52,0,0,0,.46,1.44,2.39,2.39,0,0,1,.19.58H9.79a.13.13,0,0,1,0-.08v-.06c-.05-.37-.11-.75-.13-1.12v-.13c0-.25,0-.5-.07-.76a2.13,2.13,0,0,0-.36-1,1,1,0,0,0-.72-.4H8.36a1.4,1.4,0,0,0-1,.43,3,3,0,0,0-.59.85l-.42.76-.26.47a3.37,3.37,0,0,0-.36.92c0,.06,0,.09-.05.11H5.35m0,0h.42a.17.17,0,0,0,.08-.14,3.39,3.39,0,0,1,.35-.9c.23-.42.46-.82.68-1.24a3,3,0,0,1,.59-.84,1.36,1.36,0,0,1,.93-.42h.09a.92.92,0,0,1,.7.38,2.07,2.07,0,0,1,.35,1c0,.29.06.59.08.88s.08.79.14,1.19a.18.18,0,0,0,.06.11h.93a2.43,2.43,0,0,0-.21-.63A5.52,5.52,0,0,1,10,12.94a8,8,0,0,0-.26-1.12,1.52,1.52,0,0,0-.28-.55,1.12,1.12,0,0,0-.87-.37l-.26,0a2.36,2.36,0,0,0-1.56,1,8.57,8.57,0,0,0-.55.88,11.68,11.68,0,0,0-.72,1.33,3,3,0,0,0-.24.87Z"/><path class="cls-8" d="M1.6,15l-.09-.07a.9.9,0,0,0-.6-.27H.73l-.35,0H.14a.15.15,0,0,1-.1,0V13.27l.11,0,.45-.08.25,0a1.43,1.43,0,0,1,.83.28,2.76,2.76,0,0,1,1,1.14,2.53,2.53,0,0,1,.13.38H1.6m0,0H2.82a3,3,0,0,0-.14-.44,2.8,2.8,0,0,0-1-1.16,1.47,1.47,0,0,0-.86-.28l-.26,0-.6.1v1.39a.19.19,0,0,0,.14.05H.28l.45,0H.91a.86.86,0,0,1,.57.26.41.41,0,0,0,.11.08Z"/><path class="cls-8" d="M25,2.57l-.14-.21-.09-.14-.07-.09a3.89,3.89,0,0,0-.37-.48,2.21,2.21,0,0,0-.84-.53L23,1,22.62.85A.88.88,0,0,1,22,0h.81A.63.63,0,0,1,23,.16a1.43,1.43,0,0,0,.51.28l.22.08a3.84,3.84,0,0,1,.7.3,3.13,3.13,0,0,1,.45.34.22.22,0,0,1,0,.07l0,0V2.57m0,.11V1.27s0-.1-.08-.14a3,3,0,0,0-.45-.34A5.44,5.44,0,0,0,23.54.4,1.43,1.43,0,0,1,23,.13.65.65,0,0,0,22.86,0H22a.93.93,0,0,0,.61.88l.82.27a2.15,2.15,0,0,1,.83.52,4.81,4.81,0,0,1,.43.56,3.48,3.48,0,0,0,.31.43Z"/><path class="cls-9" d="M2.83,15a.1.1,0,0,1,0-.06,2.47,2.47,0,0,0-.55-1,2.46,2.46,0,0,0-.84-.64,1.29,1.29,0,0,0-.53-.1l-.36,0-.22,0-.19,0H0v-2.7h0a3.39,3.39,0,0,1,1.64.42,3.94,3.94,0,0,0,1.47.46l.32,0a2.13,2.13,0,0,0,.66-.1,1.31,1.31,0,0,0,.75-.64A4.31,4.31,0,0,0,5.41,9a2.73,2.73,0,0,0-.07-.91l-.05-.22a4.32,4.32,0,0,1-.11-.57,2.67,2.67,0,0,1,.5-2,1.77,1.77,0,0,1,.82-.63.91.91,0,0,1,.29-.05.64.64,0,0,1,.52.32,4.57,4.57,0,0,1,.33.5c.09.15.18.3.28.44a2.48,2.48,0,0,0,.74.67,5.13,5.13,0,0,0,.8.37l.38.16a1.42,1.42,0,0,1,.8.76,2.62,2.62,0,0,1,.16.71,2.85,2.85,0,0,1,0,.34,2.43,2.43,0,0,0,0,.42c.06.39.23.47.55.49h.17a1.36,1.36,0,0,1,.36,0A1.2,1.2,0,0,1,12.72,11,2.88,2.88,0,0,1,12.48,12l-.24.58-.2.49a2.18,2.18,0,0,0-.16.67.93.93,0,0,0,.2.6,1.69,1.69,0,0,0,.29.3l.13.12.16.15H10.71a.08.08,0,0,1,0,0,4.22,4.22,0,0,0-.28-.74l0,0A5.81,5.81,0,0,1,10,12.77a6.62,6.62,0,0,0-.28-1.09,1.09,1.09,0,0,0-1.08-.78H8.58a2.06,2.06,0,0,0-1.36.58,3.54,3.54,0,0,0-.73.95l-.09.15c-.21.36-.43.73-.64,1.1a4.06,4.06,0,0,0-.44,1.16.22.22,0,0,1,0,.11H4.72s0-.05,0-.09v0A3.76,3.76,0,0,1,5,14.2a11.56,11.56,0,0,1,1.38-2.4A4.33,4.33,0,0,1,8.22,10.4c.24-.09.5-.17.71-.23a1.13,1.13,0,0,0,.75-.72,2.86,2.86,0,0,0,.23-1,1,1,0,0,0-.38-.86,3.46,3.46,0,0,0-.62-.4l-.08,0-.06,0A5.4,5.4,0,0,1,8,6.69a4.33,4.33,0,0,1-.61-.61,3.49,3.49,0,0,0-.36-.38.75.75,0,0,0-.49-.2.84.84,0,0,0-.64.34,1.63,1.63,0,0,0-.32,1.25,4.12,4.12,0,0,0,.15.71,2.7,2.7,0,0,1,0,1.32,10.3,10.3,0,0,1-.53,1.78,1.4,1.4,0,0,1-1.08.88,5.11,5.11,0,0,1-.62.08H3.38a3.34,3.34,0,0,0-.71.11.69.69,0,0,0-.24.12.42.42,0,0,0-.14.43,1.43,1.43,0,0,0,.2.47c.12.2.26.38.39.56l.2.26a3.21,3.21,0,0,1,.53,1v0a.15.15,0,0,1,0,.09H2.83m0,0h.82a.18.18,0,0,0,0-.16,3.26,3.26,0,0,0-.54-1c-.2-.27-.41-.53-.59-.82a1.37,1.37,0,0,1-.2-.46.38.38,0,0,1,.12-.39A.63.63,0,0,1,2.68,12a4,4,0,0,1,.83-.11,5.27,5.27,0,0,0,.68-.08,1.44,1.44,0,0,0,1.11-.9,10.47,10.47,0,0,0,.54-1.79,2.75,2.75,0,0,0,0-1.34,4.14,4.14,0,0,1-.14-.71A1.61,1.61,0,0,1,6,5.86a.8.8,0,0,1,.6-.33A.7.7,0,0,1,7,5.73a3.44,3.44,0,0,1,.36.38A4.36,4.36,0,0,0,8,6.72a5.88,5.88,0,0,0,.78.48,4,4,0,0,1,.7.44,1,1,0,0,1,.36.83,2.87,2.87,0,0,1-.22,1,1.1,1.1,0,0,1-.73.7c-.24.07-.48.14-.71.23a4.37,4.37,0,0,0-1.9,1.42,11.78,11.78,0,0,0-1.39,2.41,3.83,3.83,0,0,0-.23.65c0,.06,0,.11,0,.16h.6a.23.23,0,0,0,.06-.14,4,4,0,0,1,.43-1.16c.23-.42.48-.84.73-1.25a3.56,3.56,0,0,1,.72-.94,2,2,0,0,1,1.33-.57h.06a1,1,0,0,1,1,.75A6.65,6.65,0,0,1,10,12.78a5.78,5.78,0,0,0,.39,1.37,4.44,4.44,0,0,1,.29.77s0,.06.06.08h2l-.23-.22a2.87,2.87,0,0,1-.42-.42.9.9,0,0,1-.19-.58,2.12,2.12,0,0,1,.16-.66c.14-.36.29-.71.44-1.07A2.89,2.89,0,0,0,12.76,11a1.24,1.24,0,0,0-.86-1.17,2.49,2.49,0,0,0-.54,0c-.32,0-.45-.1-.51-.46s0-.51,0-.76a2.62,2.62,0,0,0-.16-.72A1.47,1.47,0,0,0,9.84,7a9.77,9.77,0,0,1-1.17-.52,2.47,2.47,0,0,1-.73-.66c-.22-.3-.38-.64-.61-.94a.68.68,0,0,0-.55-.33,1,1,0,0,0-.3.06,1.83,1.83,0,0,0-.84.65,2.72,2.72,0,0,0-.5,2,7.11,7.11,0,0,0,.17.8,2.73,2.73,0,0,1,.07.9,4.28,4.28,0,0,1-.5,1.63,1.27,1.27,0,0,1-.73.62,2.09,2.09,0,0,1-.65.1l-.32,0a3.89,3.89,0,0,1-1.46-.45,3.45,3.45,0,0,0-1.66-.42H0v2.75a.08.08,0,0,0,.07,0h0l.41-.07a2.28,2.28,0,0,1,.35,0,1.24,1.24,0,0,1,.51.1,2.43,2.43,0,0,1,.82.63,2.44,2.44,0,0,1,.54,1,.14.14,0,0,0,.07.09Z"/><path class="cls-8" d="M14.57,15l.1-.28A9,9,0,0,0,15,13.53a4.85,4.85,0,0,1,.2-.72,1.37,1.37,0,0,1,.28-.46l.27-.28.16-.16a2,2,0,0,0,.56-1.23c.06-.62.16-1.26.25-1.8,0-.25.06-.51.08-.75V8a3.45,3.45,0,0,1,.13-.8.77.77,0,0,1,.72-.55h.12a1.28,1.28,0,0,1,.92.76A2.48,2.48,0,0,1,19,8.44c0,.09,0,.19,0,.28a5,5,0,0,0,.07.8,2.17,2.17,0,0,0,.87,1.38l.19.13.35.25a1.21,1.21,0,0,1,.47.91,1.89,1.89,0,0,1,0,.53.58.58,0,0,1-.41.48,1.48,1.48,0,0,1-.44.06h-.43l-.35,0a2.22,2.22,0,0,0-1,.38,2.6,2.6,0,0,0-.79.75,1.79,1.79,0,0,0-.25.53h-1a.13.13,0,0,1,0-.08v0c0-.06,0-.11,0-.17a1.55,1.55,0,0,0,0-.33v0a.23.23,0,0,0-.13-.21h-.06a.28.28,0,0,0-.19.11,1.79,1.79,0,0,0-.37.58v0a.22.22,0,0,1-.07.12h-.83m-.06,0h.9c.07,0,.09-.11.11-.18a1.77,1.77,0,0,1,.37-.56.24.24,0,0,1,.16-.1h0c.09,0,.09.12.11.2a3.11,3.11,0,0,1,0,.5c0,.05,0,.11,0,.14h1a1.73,1.73,0,0,1,.25-.55,2.59,2.59,0,0,1,.78-.74,2.19,2.19,0,0,1,1-.38h.78a1.52,1.52,0,0,0,.45-.06.62.62,0,0,0,.44-.51,2.05,2.05,0,0,0,0-.54,1.26,1.26,0,0,0-.49-.94c-.17-.14-.36-.26-.54-.39a2.12,2.12,0,0,1-.85-1.36A7.77,7.77,0,0,1,19,8.44a2.53,2.53,0,0,0-.27-1.07,1.33,1.33,0,0,0-.95-.78h-.13a.81.81,0,0,0-.76.57,3.54,3.54,0,0,0-.13.81c0,.3,0,.61-.09.91-.1.6-.19,1.2-.25,1.8a2,2,0,0,1-.55,1.2l-.42.44a1.41,1.41,0,0,0-.29.47,4.87,4.87,0,0,0-.2.73A12.72,12.72,0,0,1,14.51,15Z"/><path class="cls-8" d="M15,4.8l-.23,0a1.36,1.36,0,0,1-.49-.23,11.92,11.92,0,0,1-1.19-.92,2.92,2.92,0,0,1-.68-.89c-.06-.13-.12-.27-.18-.4s-.18-.41-.29-.61A4.25,4.25,0,0,0,11.43,1c-.11-.12-.23-.27-.34-.43A1.39,1.39,0,0,1,10.89,0h1.24s0,.05,0,.1v0c.11.59.27,1.22.47,1.92a2.54,2.54,0,0,0,.5,1,2.12,2.12,0,0,0,.48.41,2.36,2.36,0,0,0,.91.35h.08a.52.52,0,0,0,.51-.47,2.23,2.23,0,0,0,0-.56v-.1a4.47,4.47,0,0,1,.2-1.86,3,3,0,0,1,.3-.58l0-.06a.37.37,0,0,1,.1-.13h1.16a1.28,1.28,0,0,1,0,.14s0,.09,0,.13a6.08,6.08,0,0,0,.08,1,.88.88,0,0,1-.1.6,9,9,0,0,0-.45,1V3l0,.1a6,6,0,0,1-.53,1.13,1.57,1.57,0,0,1-.36.4A.73.73,0,0,1,15,4.8m0,0a.77.77,0,0,0,.48-.16,1.61,1.61,0,0,0,.37-.41A6.55,6.55,0,0,0,16.43,3,9.23,9.23,0,0,1,16.9,2,.93.93,0,0,0,17,1.35a6,6,0,0,1-.08-1c0-.1,0-.21,0-.31H15.74a.57.57,0,0,0-.15.2,3,3,0,0,0-.31.59,4.53,4.53,0,0,0-.2,1.88,2.68,2.68,0,0,1,0,.65.48.48,0,0,1-.47.44h-.07a2.36,2.36,0,0,1-.9-.35,2.07,2.07,0,0,1-.47-.4,2.48,2.48,0,0,1-.49-.94C12.5,1.44,12.34.8,12.21.15c0-.06,0-.12-.08-.15h-1.3a1.48,1.48,0,0,0,.22.55c.11.15.22.29.34.43a4.22,4.22,0,0,1,.52.75c.18.33.31.68.47,1a2.94,2.94,0,0,0,.69.9,11.83,11.83,0,0,0,1.2.93,1.38,1.38,0,0,0,.5.23l.24,0Z"/><path class="cls-9" d="M24.93,15v0h-2.3a.76.76,0,0,1,.39-.39,3,3,0,0,1,.58-.19l.17,0a3,3,0,0,0,.44-.16,1.13,1.13,0,0,0,.65-.81,1.83,1.83,0,0,0-.27-1.5,1.29,1.29,0,0,0-.44-.39A4.5,4.5,0,0,0,23.06,11l-.17,0a5.44,5.44,0,0,1-.6-.19,1,1,0,0,1-.65-.83A2.48,2.48,0,0,1,22,8.14a2.56,2.56,0,0,1,.94-.84l.7-.36.49-.25a3.93,3.93,0,0,0,.68-.45l.09-.1L25,6.05V8h-.07l-.18,0a3.86,3.86,0,0,0-.59-.11h-.29a1.87,1.87,0,0,0-1.22.39,1.41,1.41,0,0,0-.55,1.09,1.09,1.09,0,0,0,.68,1.12,2.72,2.72,0,0,0,1.07.22,2.68,2.68,0,0,0,.68-.09l.24-.08.16-.06H25V11.6q0,1.66,0,3.31a.14.14,0,0,1,0,0h0v0m0,0c.07,0,.07,0,.07-.09q0-2.28,0-4.56a.07.07,0,0,0-.05,0l-.07,0-.4.14a2.59,2.59,0,0,1-.67.09,2.66,2.66,0,0,1-1.05-.22,1,1,0,0,1-.66-1.08,1.37,1.37,0,0,1,.53-1.06,1.82,1.82,0,0,1,1.19-.38h.28a5.51,5.51,0,0,1,.77.16h.06A.07.07,0,0,0,25,8V6c-.1.05-.16.16-.25.23a3.91,3.91,0,0,1-.67.45l-1.19.62a2.6,2.6,0,0,0-1,.85A2.53,2.53,0,0,0,21.59,10a1,1,0,0,0,.68.87,8,8,0,0,0,.78.24,4.61,4.61,0,0,1,1.08.44,1.29,1.29,0,0,1,.42.38,1.78,1.78,0,0,1,.26,1.46,1.08,1.08,0,0,1-.62.79,3,3,0,0,1-.43.16,4.26,4.26,0,0,0-.76.24.8.8,0,0,0-.43.47h2.36Z"/><path class="cls-9" d="M.51,5.25,0,5.24V4.68H.12l.16,0a2.94,2.94,0,0,0,.5.06h0A1.21,1.21,0,0,0,1.92,4a1.72,1.72,0,0,0,.19-.78A2.67,2.67,0,0,0,1.93,2.2a1.15,1.15,0,0,0-.66-.67,2.08,2.08,0,0,0-.69-.14H.11a.09.09,0,0,1-.07,0V.72l.47,0h.3A4.41,4.41,0,0,1,1.88.83.78.78,0,0,1,2.26,1a.84.84,0,0,1,.23.54c0,.18,0,.37,0,.55s0,.19,0,.28a5.37,5.37,0,0,1,0,.8A2.19,2.19,0,0,1,1.49,5a1.53,1.53,0,0,1-.77.21H.51m0,0H.72a1.58,1.58,0,0,0,.79-.22A2.25,2.25,0,0,0,2.58,3.18a5.42,5.42,0,0,0,0-.81c0-.28,0-.56-.06-.83A.88.88,0,0,0,2.29,1,.82.82,0,0,0,1.89.79,4.5,4.5,0,0,0,.81.67H.51C.34.67.17.67,0,.68v.68a.12.12,0,0,0,.11,0h0l.44,0a2.05,2.05,0,0,1,.68.14,1.12,1.12,0,0,1,.64.65,2.64,2.64,0,0,1,.17,1A1.69,1.69,0,0,1,1.88,4a1.17,1.17,0,0,1-1.08.7h0a4.26,4.26,0,0,1-.66-.09h0a.09.09,0,0,0-.08,0v.6l.51,0Z"/><path class="cls-10" d="M25,1.18a2.71,2.71,0,0,0-.69-.49,4.19,4.19,0,0,0-.44-.17L23.63.45l-.06,0a2.14,2.14,0,0,1-.4-.18,1,1,0,0,1-.23-.2h2a.08.08,0,0,1,0,0c0,.28,0,.57,0,.86v.25m0,.09c0-.4,0-.8,0-1.2C25,0,25,0,24.93,0H22.86a1.13,1.13,0,0,0,.29.28,2.66,2.66,0,0,0,.47.21c.21.08.42.14.63.24a2.77,2.77,0,0,1,.75.55Z"/><path class="cls-8" d="M3.49.15v0L3.3.09A.19.19,0,0,1,3.21,0h.62a.85.85,0,0,1-.34.07v0m0,0A.9.9,0,0,0,4,0H3.13A.27.27,0,0,0,3.3.13l.2,0Z"/><path class="cls-11" d="M20.27,3.4v0h-.12a1.32,1.32,0,0,1-.87-.53l-.19-.26A.53.53,0,0,1,19,2.18c0-.11.11-.17.21-.23A1.73,1.73,0,0,1,20,1.78a1.1,1.1,0,0,1,.66.19A.84.84,0,0,1,20.87,3a.67.67,0,0,1-.6.33v0m0,0a.71.71,0,0,0,.63-.34.88.88,0,0,0-.22-1.12,1.12,1.12,0,0,0-.68-.2,1.79,1.79,0,0,0-.79.18.38.38,0,0,0-.23.26.58.58,0,0,0,.08.41,3.19,3.19,0,0,0,.19.26,1.37,1.37,0,0,0,.89.55Z"/><path class="cls-12" d="M14.38,11.09a.43.43,0,0,1-.36-.22l-.16-.23c-.15-.22-.31-.45-.48-.66a6.71,6.71,0,0,0-.64-.69L12.41,9a5,5,0,0,1-.5-.45A2.36,2.36,0,0,1,11.53,8l-.09-.2a4.3,4.3,0,0,0-.3-.57,1.68,1.68,0,0,0-.84-.69L9.87,6.4c-.17-.05-.36-.11-.53-.17a2,2,0,0,1-.77-.48,1.88,1.88,0,0,1-.47-1,1.47,1.47,0,0,1,.2-1,3.09,3.09,0,0,1,.3-.4,8.23,8.23,0,0,0,.71-1,6.22,6.22,0,0,1,.35-.53.82.82,0,0,1,.65-.34.77.77,0,0,1,.25,0,1.77,1.77,0,0,1,1,.83l.2.36a5.66,5.66,0,0,0,.35.6,4.83,4.83,0,0,0,.78.84l.08.07c.26.23.53.46.79.71l.06.06a4.14,4.14,0,0,0,.67.54,1.57,1.57,0,0,0,.82.24l.29,0a.87.87,0,0,0,.56-.4A2.32,2.32,0,0,0,16.32,5l.07-.16a6.88,6.88,0,0,1,.47-.9,2,2,0,0,1,.58-.61,1.11,1.11,0,0,1,.6-.2,1,1,0,0,1,.51.14l.48.28.33.2a1.72,1.72,0,0,0,.86.24,1.28,1.28,0,0,0,1.23-.68,1.49,1.49,0,0,0,.16-.61,2.2,2.2,0,0,0-.06-.76.93.93,0,0,0-.71-.68,3.72,3.72,0,0,0-.64-.08H19.8a2.64,2.64,0,0,1-.69-.07,1.38,1.38,0,0,1-.9-.76l-.1-.23,0,0h.78l.06.05a.94.94,0,0,0,.58.42A1.9,1.9,0,0,0,20,.6a2.11,2.11,0,0,0,.73-.14.64.64,0,0,0,.36-.35A.17.17,0,0,1,21.2,0H22a.21.21,0,0,1,0,.11.92.92,0,0,0,.66.76L23,1l.37.12A2.25,2.25,0,0,1,24.54,2l.25.35.1.14a.36.36,0,0,1,0,.09l0,.08V4a9.51,9.51,0,0,0-1,1l-.48.59-.16.21a7.6,7.6,0,0,1-.7.77l-.14.13a6.52,6.52,0,0,0-.82.86A3.62,3.62,0,0,0,21,9.12l0,.17a3.13,3.13,0,0,1-.15.65.37.37,0,0,1-.33.27l-.12,0a.9.9,0,0,1-.56-.48,2.26,2.26,0,0,1-.22-.88,4.25,4.25,0,0,0-.42-1.7A2.05,2.05,0,0,0,17.91,6a2,2,0,0,0-.51-.07A2.08,2.08,0,0,0,17,6a.75.75,0,0,0-.61.71,5.66,5.66,0,0,0-.05.87,4.48,4.48,0,0,1-.44,2l-.06.12a5,5,0,0,1-.44.8,1.59,1.59,0,0,1-.83.6l-.14,0m0,0,.15,0a1.65,1.65,0,0,0,.85-.61,6,6,0,0,0,.5-.93,4.55,4.55,0,0,0,.45-2,5.56,5.56,0,0,1,.05-.86A.71.71,0,0,1,17,6a2,2,0,0,1,.44,0,1.92,1.92,0,0,1,.5.07,2,2,0,0,1,1.24,1.11,4.15,4.15,0,0,1,.41,1.68,2.34,2.34,0,0,0,.22.9,1,1,0,0,0,.59.5l.14,0a.4.4,0,0,0,.37-.29A4.23,4.23,0,0,0,21,9.13a3.57,3.57,0,0,1,.64-1.55,7.52,7.52,0,0,1,1-1,7.58,7.58,0,0,0,.71-.77c.21-.27.42-.54.65-.79a9.36,9.36,0,0,1,1-1V2.68a1.61,1.61,0,0,0-.08-.18L24.57,2A2.31,2.31,0,0,0,23.4,1.1L22.69.87a.88.88,0,0,1-.63-.73A.22.22,0,0,0,22,0h-.81a.21.21,0,0,0-.09.1.6.6,0,0,1-.34.32A2.07,2.07,0,0,1,20,.56a1.88,1.88,0,0,1-.52-.07A.91.91,0,0,1,19,.08.31.31,0,0,0,18.87,0H18c0,.11.09.22.15.33a1.41,1.41,0,0,0,.93.79,4.55,4.55,0,0,0,1,.07,4.39,4.39,0,0,1,.75.09.88.88,0,0,1,.69.66,2.1,2.1,0,0,1,.06.74,1.45,1.45,0,0,1-.15.59,1.25,1.25,0,0,1-1.19.66h0a1.7,1.7,0,0,1-.84-.24l-.82-.48a1.08,1.08,0,0,0-.53-.15,1.13,1.13,0,0,0-.62.2,2,2,0,0,0-.59.62,8.29,8.29,0,0,0-.55,1.07,2.33,2.33,0,0,1-.17.31.84.84,0,0,1-.53.38l-.28,0a1.53,1.53,0,0,1-.8-.23,4.64,4.64,0,0,1-.72-.59c-.28-.27-.58-.52-.87-.78a4.72,4.72,0,0,1-.78-.83c-.21-.3-.36-.64-.54-1a1.82,1.82,0,0,0-1-.85.83.83,0,0,0-.26,0,.85.85,0,0,0-.68.36,6.31,6.31,0,0,0-.35.53,8.25,8.25,0,0,1-.7,1,3.09,3.09,0,0,0-.3.41,1.52,1.52,0,0,0-.2,1,1.94,1.94,0,0,0,.48,1.06,2,2,0,0,0,.78.49c.31.12.63.19.95.3a1.64,1.64,0,0,1,.83.68,6.37,6.37,0,0,1,.4.77,2.41,2.41,0,0,0,.39.58c.25.28.56.48.83.73a6.79,6.79,0,0,1,.64.68c.23.28.43.58.64.88a.47.47,0,0,0,.39.24Z"/><path class="cls-9" d="M3.52,10.89a2,2,0,0,1-1-.32c-.18-.11-.35-.23-.52-.35L1.59,10A4,4,0,0,0,.11,9.39H0v-1c.24.14.49.27.74.39L1.21,9a5.28,5.28,0,0,1,1,.76,2.79,2.79,0,0,0,.91.61,1.09,1.09,0,0,0,.36.06.94.94,0,0,0,.89-.72,2.13,2.13,0,0,0,0-1.22A5,5,0,0,1,4.29,7a12.8,12.8,0,0,1,.17-1.65,2.35,2.35,0,0,1,.33-.81l.1-.17a5.29,5.29,0,0,0,.44-.8c.1-.25.2-.5.29-.74l.06-.16a1.67,1.67,0,0,1,.92-1A3.67,3.67,0,0,0,7.72,1,4,4,0,0,0,8.47.08l0,0H9.56a1.24,1.24,0,0,1-.44.63L9,.78a6.72,6.72,0,0,0-.91.82,6.89,6.89,0,0,0-.56.75,3.44,3.44,0,0,1-.78.82A5,5,0,0,0,5.93,4l-.58.72a3.1,3.1,0,0,0-.62,1.5A6.5,6.5,0,0,0,4.65,7a4.15,4.15,0,0,0,.14,1.15,3.2,3.2,0,0,1,.12,1,2.32,2.32,0,0,1-.5,1.39,1,1,0,0,1-.68.36h-.2m0,0h.21a1,1,0,0,0,.7-.37,2.39,2.39,0,0,0,.51-1.41,3.27,3.27,0,0,0-.12-1A4.14,4.14,0,0,1,4.69,7a6.67,6.67,0,0,1,.07-.76,3.09,3.09,0,0,1,.62-1.48L6,4a5,5,0,0,1,.8-.84,3.47,3.47,0,0,0,.79-.83,6.93,6.93,0,0,1,.56-.74,7.57,7.57,0,0,1,1-.92A1.28,1.28,0,0,0,9.61,0H8.46l0,.05A3.89,3.89,0,0,1,7.7,1a3.65,3.65,0,0,1-1.11.73,1.7,1.7,0,0,0-.94,1c-.11.3-.23.6-.35.9a6.75,6.75,0,0,1-.55,1,2.38,2.38,0,0,0-.33.82A12.85,12.85,0,0,0,4.25,7a5,5,0,0,0,.14,1.47,2.12,2.12,0,0,1,0,1.2.9.9,0,0,1-.85.69,1.08,1.08,0,0,1-.35-.06,2.78,2.78,0,0,1-.9-.61,5.48,5.48,0,0,0-1-.76C.82,8.73.4,8.54,0,8.3V9.41l.1,0A4,4,0,0,1,1.57,10c.3.2.58.43.9.62a2.07,2.07,0,0,0,1.06.33Z"/><path class="cls-12" d="M0,6.8V6A3.51,3.51,0,0,0,1.82,5.4,3,3,0,0,0,3,3.35c0-.16,0-.33.06-.5s0-.48.09-.71a1.72,1.72,0,0,1,.45-1A3.41,3.41,0,0,1,4.19.78l.06,0a2.26,2.26,0,0,0,.7-.63L5,0h.61a1.48,1.48,0,0,1-.7,1l-.16.1a3.77,3.77,0,0,0-.57.41,1.73,1.73,0,0,0-.43.71,4.51,4.51,0,0,0-.2.9l0,.22a2.91,2.91,0,0,1-.37,1.14,5.27,5.27,0,0,1-.75.86l0,0A3.85,3.85,0,0,1,1.43,6l-.27.14c-.37.19-.74.38-1.1.61H0m0,.06.08,0c.44-.28.91-.51,1.37-.75a3.9,3.9,0,0,0,.94-.67,5.36,5.36,0,0,0,.78-.89,2.91,2.91,0,0,0,.37-1.15,5.9,5.9,0,0,1,.23-1.11,1.71,1.71,0,0,1,.42-.69A5.05,5.05,0,0,1,4.91,1a1.51,1.51,0,0,0,.73-1H5a.71.71,0,0,1,0,.09,2.26,2.26,0,0,1-.68.62,3.72,3.72,0,0,0-.62.45,1.77,1.77,0,0,0-.46,1c-.08.4-.09.81-.15,1.21a2.92,2.92,0,0,1-1.2,2A3.49,3.49,0,0,1,0,5.92v.94Z"/><path class="cls-13" d="M5.78,15A3.73,3.73,0,0,1,6.13,14l.27-.48.23-.42.11-.21c.11-.2.22-.41.34-.61A1.85,1.85,0,0,1,8,11.52a1.13,1.13,0,0,1,.41-.08,1,1,0,0,1,.91.6,2.52,2.52,0,0,1,.24.9c0,.18,0,.37,0,.55s0,.39,0,.58.05.42.08.62l0,.26H9.1v-.7c0-.16,0-.32,0-.47a5.31,5.31,0,0,0,0-.6,1.76,1.76,0,0,0-.25-.92.75.75,0,0,0-.63-.36.89.89,0,0,0-.47.14,1.56,1.56,0,0,0-.55.65L7,13.11c-.2.41-.42.84-.64,1.25a1.92,1.92,0,0,0-.21.6H5.78m0,0h.49a1.86,1.86,0,0,1,.21-.62c.29-.55.56-1.11.84-1.66a1.52,1.52,0,0,1,.53-.63.85.85,0,0,1,.45-.14.71.71,0,0,1,.6.34,1.72,1.72,0,0,1,.24.9c0,.36,0,.71,0,1.07V15h.71c0-.31-.09-.62-.13-.92s-.06-.76-.09-1.13A2.58,2.58,0,0,0,9.31,12a1,1,0,0,0-.94-.62,1.17,1.17,0,0,0-.43.08,1.91,1.91,0,0,0-.89.79c-.17.26-.31.55-.46.82l-.5.9a3.77,3.77,0,0,0-.36,1Z"/><path class="cls-10" d="M18.18,15a1.58,1.58,0,0,1,1.28-1l.31,0c.17,0,.35,0,.52,0h.05l.17,0c.19,0,.39,0,.59.06.43.07.48.13.57.57a2,2,0,0,1,0,.35H21a.76.76,0,0,1-.13-.11.71.71,0,0,0-.17-.14,1.63,1.63,0,0,0-.78-.22,1.3,1.3,0,0,0-.65.18.68.68,0,0,0-.22.19.28.28,0,0,1-.1.09h-.74m-.06,0h.81a.33.33,0,0,0,.13-.11.63.63,0,0,1,.21-.18,1.26,1.26,0,0,1,.63-.17,1.61,1.61,0,0,1,.76.22c.12.06.19.18.3.25h.81a1.89,1.89,0,0,0,0-.39c-.09-.46-.16-.53-.6-.6-.25,0-.51-.06-.76-.08s-.38,0-.57,0l-.32,0A1.63,1.63,0,0,0,18.12,15Z"/><path class="cls-10" d="M.07,15H0a.07.07,0,0,1,0,0c0-.07,0-.14,0-.21v-.05l.33,0,.35,0h0a.9.9,0,0,1,.79.32H.07m0,0H1.59a.91.91,0,0,0-.86-.4h0c-.24,0-.47,0-.7,0H0c0,.1,0,.2,0,.3S0,15,.07,15Z"/><path class="cls-13" d="M22.42,13.79v0h-.23a.41.41,0,0,1-.37-.31,2.58,2.58,0,0,1-.11-.57s0-.07,0-.1a.84.84,0,0,1,0-.23,1.56,1.56,0,0,1,.05-.5c.09-.31.17-.39.47-.46l.2,0a1.73,1.73,0,0,1,.52.1,1.37,1.37,0,0,1,.64.37,1.11,1.11,0,0,1,.32.83.84.84,0,0,1-.33.6,1.14,1.14,0,0,1-.42.2,3,3,0,0,1-.72.11v0m0,0a3,3,0,0,0,.73-.11,1.17,1.17,0,0,0,.43-.21,1,1,0,0,0,0-1.48,1.45,1.45,0,0,0-.66-.38,1.81,1.81,0,0,0-.53-.1l-.2,0c-.32.07-.41.16-.5.49a1.64,1.64,0,0,0-.05.51,1.52,1.52,0,0,0,0,.33,2.6,2.6,0,0,0,.11.58.45.45,0,0,0,.4.34Z"/><path class="cls-9" d="M13.59,14.05a.69.69,0,0,1-.6-.47v0a.63.63,0,0,1,0-.2,1.27,1.27,0,0,1,.2-.59,1.16,1.16,0,0,1,.49-.49.27.27,0,0,1,.12,0,.19.19,0,0,1,.17.13,1.56,1.56,0,0,1,.14.52h0a1.49,1.49,0,0,1-.07.78.6.6,0,0,1-.21.28.34.34,0,0,1-.21.07m0,0a.38.38,0,0,0,.23-.08.64.64,0,0,0,.22-.3,1.52,1.52,0,0,0,.07-.8,1.63,1.63,0,0,0-.15-.55.23.23,0,0,0-.2-.15.33.33,0,0,0-.14,0,1.22,1.22,0,0,0-.51.5,1.32,1.32,0,0,0-.2.61.72.72,0,0,0,0,.23.74.74,0,0,0,.64.5Z"/><path class="cls-12" d="M3.53,10.4a1,1,0,0,1-.29,0,2.11,2.11,0,0,1-.85-.53A6.42,6.42,0,0,0,.66,8.67a5.86,5.86,0,0,1-.54-.29A.23.23,0,0,1,0,8.29V6.87a.31.31,0,0,1,.1-.09c.41-.25.85-.48,1.22-.67a4.06,4.06,0,0,0,1-.68A6.54,6.54,0,0,0,3,4.67a2.4,2.4,0,0,0,.43-1c0-.15.05-.31.08-.46s.07-.44.12-.66a2,2,0,0,1,.43-.9,2.43,2.43,0,0,1,.52-.42l.11-.07A2.63,2.63,0,0,0,5.2.81,1.43,1.43,0,0,0,5.6.13a.21.21,0,0,1,0-.09h.83a.18.18,0,0,1,.07.08.33.33,0,0,0,.3.21L7,.31A.73.73,0,0,0,7.26.14h0A.65.65,0,0,1,7.4,0h1s0,0,0,.07v0a2.31,2.31,0,0,1-.3.42,4,4,0,0,1-1.21,1l-.07,0-.27.13A1.74,1.74,0,0,0,5.61,2.8l0,.06c-.09.24-.18.5-.29.74a5.67,5.67,0,0,1-.5.88,2.92,2.92,0,0,0-.45,1.33c0,.34-.08.74-.1,1.15a5,5,0,0,0,.12,1.48,2.54,2.54,0,0,1,.09.72,1.47,1.47,0,0,1-.34,1,.79.79,0,0,1-.6.29m0,0a.83.83,0,0,0,.63-.3,1.53,1.53,0,0,0,.35-1,2.59,2.59,0,0,0-.09-.73A5,5,0,0,1,4.3,7c0-.38.06-.76.1-1.15A2.89,2.89,0,0,1,4.84,4.5a5.73,5.73,0,0,0,.5-.88c.12-.26.21-.53.31-.8a1.71,1.71,0,0,1,.92-1.06l.33-.16a4.05,4.05,0,0,0,1.23-1,2.4,2.4,0,0,0,.3-.42S8.5.06,8.46,0H7.39a.75.75,0,0,0-.16.11A.69.69,0,0,1,7,.27l-.1,0A.29.29,0,0,1,6.59.1.23.23,0,0,0,6.5,0H5.64a.22.22,0,0,0-.07.12,1.41,1.41,0,0,1-.39.66,3.44,3.44,0,0,1-.57.4,2.44,2.44,0,0,0-.53.42,2.09,2.09,0,0,0-.44.92c-.09.37-.12.75-.2,1.12a2.36,2.36,0,0,1-.42,1,6.36,6.36,0,0,1-.69.75,4,4,0,0,1-1,.68c-.42.21-.83.43-1.23.67A.35.35,0,0,0,0,6.86V8.3a.26.26,0,0,0,.11.11,5.74,5.74,0,0,0,.54.29A6.39,6.39,0,0,1,2.37,9.86a2.17,2.17,0,0,0,.86.54,1.09,1.09,0,0,0,.3,0Z"/><path class="cls-13" d="M6.24,15s0,0,0-.08a3.17,3.17,0,0,1,.32-.75c.22-.39.41-.77.58-1.15a2.65,2.65,0,0,1,.41-.67.93.93,0,0,1,.7-.36h.12a.74.74,0,0,1,.54.42,1.77,1.77,0,0,1,.19.79,6.43,6.43,0,0,1,0,.69V14c0,.17,0,.35,0,.52s0,.21,0,.31v0A.15.15,0,0,1,9,15H8.22a.08.08,0,0,1,0-.06,5,5,0,0,1,.13-.81,6.5,6.5,0,0,0,.13-.67.83.83,0,0,0-.07-.47.27.27,0,0,0-.24-.17.32.32,0,0,0-.15,0,.61.61,0,0,0-.22.23,2.18,2.18,0,0,0-.21.46,6.81,6.81,0,0,1-.51,1.08,2.63,2.63,0,0,0-.13.27.16.16,0,0,1-.07.09H6.24m0,0h.66A.21.21,0,0,0,7,14.89a2.29,2.29,0,0,1,.13-.27,6.91,6.91,0,0,0,.51-1.09,2.17,2.17,0,0,1,.2-.46.56.56,0,0,1,.2-.22.27.27,0,0,1,.13,0,.23.23,0,0,1,.21.15.78.78,0,0,1,.06.45,6.38,6.38,0,0,1-.13.67,5.11,5.11,0,0,0-.13.81.11.11,0,0,0,0,.1h.86s0-.1,0-.15c0-.28,0-.55,0-.83a8.56,8.56,0,0,0,0-.87,1.82,1.82,0,0,0-.19-.81.78.78,0,0,0-.57-.44H8.25a1,1,0,0,0-.73.38A2.71,2.71,0,0,0,7.1,13c-.18.39-.37.77-.58,1.14a3.31,3.31,0,0,0-.32.76s0,.1,0,.13Z"/><path class="cls-9" d="M20,.61v0a1.64,1.64,0,0,1-.46-.06A.92.92,0,0,1,18.93,0h2.21a.75.75,0,0,1-.62.47,2.63,2.63,0,0,1-.5.05v0m0,0a2.66,2.66,0,0,0,.51-.05A.79.79,0,0,0,21.19,0H18.87a1,1,0,0,0,.67.54A1.7,1.7,0,0,0,20,.61Z"/><path class="cls-9" d="M19,15a1,1,0,0,1,.83-.43h.08a1.39,1.39,0,0,1,.88.3.46.46,0,0,1,.11.13H19m-.07,0h2a.58.58,0,0,0-.15-.2,1.42,1.42,0,0,0-.9-.31h-.08a1,1,0,0,0-.89.51Z"/><path class="cls-13" d="M14.39,9.59a1.32,1.32,0,0,1-.73-.29,9.26,9.26,0,0,1-.83-.68l-.12-.11a3.42,3.42,0,0,1-.89-1.26,3,3,0,0,0-.54-.87,2.21,2.21,0,0,0-.86-.56l-.34-.12a4.68,4.68,0,0,1-.46-.16A.87.87,0,0,1,9,4.89a1,1,0,0,1,.1-.63A7.45,7.45,0,0,1,9.9,2.89a1,1,0,0,1,.43-.35.49.49,0,0,1,.18,0,.64.64,0,0,1,.4.17,1.57,1.57,0,0,1,.31.38v0a4.47,4.47,0,0,0,1.08,1.13,7.81,7.81,0,0,1,1.14,1.05l.46.51a3.86,3.86,0,0,0,1,.75l.32.19a1,1,0,0,1,.45.7,2,2,0,0,1-.51,1.81,1,1,0,0,1-.74.36h0m0,0h0a1,1,0,0,0,.77-.38,2,2,0,0,0,.52-1.85,1.1,1.1,0,0,0-.47-.73l-.33-.19a3.79,3.79,0,0,1-1-.74l-.46-.51a7.88,7.88,0,0,0-1.15-1.06,4.49,4.49,0,0,1-1.07-1.12,1.67,1.67,0,0,0-.33-.41.69.69,0,0,0-.42-.18.52.52,0,0,0-.19,0,1,1,0,0,0-.45.36,7.56,7.56,0,0,0-.78,1.37A1,1,0,0,0,9,4.9a.92.92,0,0,0,.61.69c.26.11.54.18.8.28a2.19,2.19,0,0,1,.85.55,3,3,0,0,1,.54.86,3.48,3.48,0,0,0,.9,1.27,10.87,10.87,0,0,0,1,.78,1.36,1.36,0,0,0,.75.3Z"/><path class="cls-8" d="M20.37,8a.22.22,0,0,1-.16-.09,2.18,2.18,0,0,1-.31-.47l0-.08c-.22-.4-.41-.72-.61-1a2.56,2.56,0,0,0-1.28-1,1.47,1.47,0,0,1-.38-.2.43.43,0,0,1-.17-.47A.86.86,0,0,1,18.19,4a1.6,1.6,0,0,1,.6.17,3.14,3.14,0,0,0,.86.29,4,4,0,0,0,.5,0,2.61,2.61,0,0,0,1.13-.24,1.63,1.63,0,0,0,.88-1.17l.06-.25c0-.16.08-.32.12-.48A.62.62,0,0,1,23,1.84l.21,0a1.32,1.32,0,0,1,1,1.17,1.2,1.2,0,0,1-.25.85c-.2.29-.42.58-.63.86l-.46.61a10.78,10.78,0,0,1-.91,1.05l-.24.26c-.27.29-.51.6-.74.89l0,.06a1.07,1.07,0,0,1-.34.32.3.3,0,0,1-.13,0m0,0a.34.34,0,0,0,.15,0,1.32,1.32,0,0,0,.4-.4c.24-.3.48-.6.74-.89a13.9,13.9,0,0,0,1.16-1.31c.36-.5.75-1,1.09-1.46A1.25,1.25,0,0,0,24.17,3a1.36,1.36,0,0,0-1-1.21L23,1.8a.66.66,0,0,0-.66.51c-.07.24-.12.48-.18.73a1.61,1.61,0,0,1-.86,1.14,2.58,2.58,0,0,1-1.12.24,3.73,3.73,0,0,1-.5,0,3.12,3.12,0,0,1-.85-.29,1.62,1.62,0,0,0-.62-.17.9.9,0,0,0-.81.67.47.47,0,0,0,.18.51,1.51,1.51,0,0,0,.39.2,2.53,2.53,0,0,1,1.26,1c.22.33.42.67.61,1a2.64,2.64,0,0,0,.35.55.26.26,0,0,0,.19.1Z"/><path class="cls-13" d="M3.67,15a3.84,3.84,0,0,0-.79-1.44,5.42,5.42,0,0,1-.44-.64,1.17,1.17,0,0,1-.14-.43.38.38,0,0,1,.24-.39,1.63,1.63,0,0,1,.53-.12l.39,0a4.47,4.47,0,0,0,.86-.12A1.53,1.53,0,0,0,5,11.43,1.44,1.44,0,0,0,5.24,11a7.32,7.32,0,0,0,.44-1.28l0-.13a5.28,5.28,0,0,0,.18-.91,2.15,2.15,0,0,0,0-.68l-.06-.23c0-.17-.08-.36-.12-.53a1.83,1.83,0,0,1,.1-1.08,1,1,0,0,1,.8-.65h0a.74.74,0,0,1,.51.26l.36.39.16.18a3.42,3.42,0,0,0,.9.69l.2.11.55.32a1.59,1.59,0,0,1,.4.36,1,1,0,0,1,.18.7,2.81,2.81,0,0,1-.22.92,1.09,1.09,0,0,1-.72.69,5.6,5.6,0,0,0-1.29.5,5.14,5.14,0,0,0-.85.63A6.54,6.54,0,0,0,5.58,12.9c-.21.37-.41.74-.59,1.13a4.58,4.58,0,0,0-.32.93h-1m0,0H4.7A4.53,4.53,0,0,1,5,14q.27-.58.58-1.13a6.51,6.51,0,0,1,1.2-1.63,5,5,0,0,1,.84-.62,5.53,5.53,0,0,1,1.28-.5,1.12,1.12,0,0,0,.75-.71,2.87,2.87,0,0,0,.23-.93,1,1,0,0,0-.19-.73,1.65,1.65,0,0,0-.41-.37c-.25-.15-.5-.28-.75-.42a3.37,3.37,0,0,1-.89-.68c-.17-.19-.34-.38-.52-.57a.79.79,0,0,0-.54-.28h0a1,1,0,0,0-.84.67,1.88,1.88,0,0,0-.1,1.1c0,.26.11.51.17.77a2.1,2.1,0,0,1,0,.67,5.34,5.34,0,0,1-.17.91A8,8,0,0,1,5.21,11a1.37,1.37,0,0,1-.27.4,1.49,1.49,0,0,1-.61.34,7.8,7.8,0,0,1-1.24.15,1.64,1.64,0,0,0-.54.13.42.42,0,0,0-.27.43,1.2,1.2,0,0,0,.14.45,5.19,5.19,0,0,0,.44.65A3.8,3.8,0,0,1,3.64,15Z"/><path class="cls-8" d="M14.64,3.77h-.05a2.22,2.22,0,0,1-1.23-.57,2.74,2.74,0,0,1-.78-1.48l-.07-.26C12.39,1,12.27.52,12.19,0h3.5a1.48,1.48,0,0,1-.15.27l-.05.08a2.77,2.77,0,0,0-.37,1.1,4.65,4.65,0,0,0-.05.78c0,.13,0,.26,0,.39s0,.22,0,.33a.78.78,0,0,1-.18.66.4.4,0,0,1-.29.12m0,0A.44.44,0,0,0,15,3.68.82.82,0,0,0,15.15,3c0-.24,0-.48,0-.72a4.59,4.59,0,0,1,.06-.78A2.75,2.75,0,0,1,15.51.41,1.72,1.72,0,0,0,15.74,0h-3.6V0c.1.57.25,1.12.39,1.68a2.78,2.78,0,0,0,.79,1.5,2.29,2.29,0,0,0,1.25.58Z"/><path class="cls-8" d="M23.8,10.57a2.46,2.46,0,0,1-1.16-.27,1.11,1.11,0,0,1-.55-1.13A1.54,1.54,0,0,1,23.18,7.9a2.38,2.38,0,0,1,.66-.09,3.3,3.3,0,0,1,.81.11L25,8v2.32l-.23.08a2.31,2.31,0,0,1-.45.13,3.27,3.27,0,0,1-.48,0m0,0a3.39,3.39,0,0,0,.48,0,5.29,5.29,0,0,0,.71-.22V8l-.34-.09a3.39,3.39,0,0,0-.82-.11,2.44,2.44,0,0,0-.67.09,1.57,1.57,0,0,0-1.11,1.29,1.16,1.16,0,0,0,.57,1.17,2.51,2.51,0,0,0,1.18.28Z"/><path class="cls-8" d="M.78,4.73a2.43,2.43,0,0,1-.45-.05L0,4.63H0V3.94H.12a3.27,3.27,0,0,0,.53.13H.91a.7.7,0,0,0,.58-.71A1.08,1.08,0,0,0,.6,2.22a1.93,1.93,0,0,0-.32,0H.12s-.06,0-.08,0V1.41h0a3.74,3.74,0,0,1,1,.09A1.19,1.19,0,0,1,2,2.44,2.41,2.41,0,0,1,2,3.69a1.25,1.25,0,0,1-1,1l-.22,0m0,0,.23,0a1.3,1.3,0,0,0,1-1A2.47,2.47,0,0,0,2,2.43a1.24,1.24,0,0,0-.91-1,3.83,3.83,0,0,0-1-.1H0v.82s.08,0,.13,0H.28a2,2,0,0,1,.31,0,1,1,0,0,1,.87,1.12A.66.66,0,0,1,.91,4H.65a3.29,3.29,0,0,1-.52-.13l-.07,0a.07.07,0,0,0-.06,0v.74l.32.05a2.39,2.39,0,0,0,.46.05Z"/><path class="cls-9" d="M15.46,15a1.88,1.88,0,0,1,.42-.71l.09-.07a.18.18,0,0,1,.1,0c.08,0,.11.08.13.13a1.13,1.13,0,0,1,0,.31c0,.1,0,.2,0,.3V15h-.77m-.05,0h.86c0-.14,0-.28,0-.42a1.15,1.15,0,0,0,0-.32c0-.11-.09-.16-.17-.16a.23.23,0,0,0-.12,0l-.09.08a1.89,1.89,0,0,0-.45.78Z"/><path class="cls-12" d="M11,12.65h0a.26.26,0,0,1-.21-.11.93.93,0,0,1-.16-.77.42.42,0,0,1,.42-.34h0a.41.41,0,0,1,.31.12.52.52,0,0,1,.11.4.88.88,0,0,1-.33.65.26.26,0,0,1-.16.06m0,0a.31.31,0,0,0,.19-.07.92.92,0,0,0,.35-.68c0-.35-.15-.56-.45-.56h0a.46.46,0,0,0-.46.37,1,1,0,0,0,.16.81.3.3,0,0,0,.24.13Z"/><path class="cls-8" d="M17.21,13.11v0h-.05a.2.2,0,0,1-.2-.22,1.54,1.54,0,0,1,.07-.46l0-.14.07-.29a5.91,5.91,0,0,0,.13-.59,4.74,4.74,0,0,0,.07-.73v-.22c0-.38,0-.76,0-1.14,0-.17,0-.33,0-.5s0-.3,0-.45v0a2,2,0,0,1,.09-.58.4.4,0,0,1,.35-.3.39.39,0,0,1,.22.08.76.76,0,0,1,.24.29,1.59,1.59,0,0,1,.14.65c0,.09,0,.18,0,.3s0,.13,0,.2A3.28,3.28,0,0,0,18.56,10a3.88,3.88,0,0,0,.67,1.22l.36.46,0,0a.82.82,0,0,1,.11.19c.08.19,0,.28-.13.39a.66.66,0,0,1-.22.07,8.18,8.18,0,0,0-1.26.42,2.42,2.42,0,0,1-.91.23v0m0,0a2.49,2.49,0,0,0,.93-.24,8.1,8.1,0,0,1,1.26-.42.7.7,0,0,0,.23-.08c.21-.13.23-.24.15-.44a.85.85,0,0,0-.11-.2l-.4-.51A3.84,3.84,0,0,1,18.6,10a3.34,3.34,0,0,1-.13-1.12c0-.21,0-.36,0-.5a1.62,1.62,0,0,0-.15-.67.79.79,0,0,0-.26-.3.43.43,0,0,0-.24-.08.44.44,0,0,0-.39.33,2.07,2.07,0,0,0-.09.63c0,.32,0,.63,0,.95s0,.91,0,1.36a4.65,4.65,0,0,1-.07.73c0,.3-.14.58-.21.88a2.23,2.23,0,0,0-.11.61.24.24,0,0,0,.24.25Z"/><path class="cls-8" d="M.81,4.06a2.22,2.22,0,0,1-.65-.13h0L0,3.9V2.23H.23a2.12,2.12,0,0,1,.46,0,1,1,0,0,1,.63.48,1.1,1.1,0,0,1,.11.86.63.63,0,0,1-.58.46h0m0,0h0a.67.67,0,0,0,.61-.48A1.12,1.12,0,0,0,.69,2.23a2.11,2.11,0,0,0-.47,0H0V3.93L.13,4a2.37,2.37,0,0,0,.69.14Z"/><path class="cls-8" d="M6.32,10.74c-.14,0-.22-.1-.22-.29a2.66,2.66,0,0,1,.08-.64c0-.21.11-.41.16-.61s.11-.36.15-.54a3.15,3.15,0,0,0,0-1.23A1.7,1.7,0,0,1,6.5,7c0-.18.09-.29.23-.29a.37.37,0,0,1,.16,0,2,2,0,0,1,.3.18A9.14,9.14,0,0,0,8,7.47l.14.08A2.42,2.42,0,0,1,8.74,8a.69.69,0,0,1,.2.53.94.94,0,0,1-.26.69A3.15,3.15,0,0,1,8,9.74l-1,.69,0,0a2,2,0,0,1-.53.27l-.11,0m0,0,.12,0A2.17,2.17,0,0,0,7,10.47l1-.69a3.15,3.15,0,0,0,.65-.52A1,1,0,0,0,9,8.53.73.73,0,0,0,8.77,8a2.4,2.4,0,0,0-.62-.47,10.67,10.67,0,0,1-.94-.57,2.06,2.06,0,0,0-.31-.19.41.41,0,0,0-.17,0c-.15,0-.26.12-.27.33a1.74,1.74,0,0,0,0,.38,3.14,3.14,0,0,1,0,1.22c-.09.39-.23.76-.31,1.15a2.7,2.7,0,0,0-.08.66c0,.22.1.33.26.33Z"/><path class="cls-13" d="M4.09,13.36v0a.41.41,0,0,1-.29-.14c-.14-.15-.15-.17-.15-.28a.24.24,0,0,1,.17-.22,1,1,0,0,1,.26,0l.19,0a.24.24,0,0,1,.17.13.31.31,0,0,1,0,.27.38.38,0,0,1-.34.26v0m0,0a.42.42,0,0,0,.38-.29.3.3,0,0,0-.19-.45l-.2,0a1.07,1.07,0,0,0-.27,0,.28.28,0,0,0-.2.26c0,.12,0,.16.16.3a.45.45,0,0,0,.32.16Z"/><path class="cls-8" d="M13.74,2.21l-.08,0a.5.5,0,0,1-.18-.37.34.34,0,0,1,.11-.3.2.2,0,0,1,.12,0,.27.27,0,0,1,.21.17.46.46,0,0,1-.08.52.13.13,0,0,1-.1,0m0,0a.18.18,0,0,0,.13-.06A.51.51,0,0,0,14,1.62a.31.31,0,0,0-.24-.19.23.23,0,0,0-.14.06.5.5,0,0,0,.07.73l.1,0Z"/><path class="cls-12" d="M23.54,9.85a1.07,1.07,0,0,1-.43-.09.55.55,0,0,1-.36-.49A.63.63,0,0,1,23,8.73a.94.94,0,0,1,.63-.21h0a1.13,1.13,0,0,1,.83.32.39.39,0,0,1,0,.54,1.29,1.29,0,0,1-1,.46m0,0a1.32,1.32,0,0,0,1-.48.43.43,0,0,0,0-.6,1.17,1.17,0,0,0-.86-.33h0A1,1,0,0,0,23,8.7a.67.67,0,0,0-.26.57.59.59,0,0,0,.38.53,1.12,1.12,0,0,0,.44.09Z"/><path class="cls-9" d="M6.94,15a5.63,5.63,0,0,1,.29-.58l.11-.2a4.92,4.92,0,0,0,.24-.57l.11-.29a1.24,1.24,0,0,1,.26-.43.29.29,0,0,1,.2-.09.24.24,0,0,1,.14.05.4.4,0,0,1,.13.25,1.13,1.13,0,0,1,0,.47c0,.15-.06.3-.09.45s-.08.35-.1.53,0,.21,0,.32V15H6.94m-.06,0H8.2c0-.15,0-.29,0-.44,0-.33.14-.65.2-1a1.16,1.16,0,0,0,0-.48.44.44,0,0,0-.15-.28.28.28,0,0,0-.17-.06.33.33,0,0,0-.22.1,1.27,1.27,0,0,0-.27.44c-.12.29-.21.58-.35.86a7.91,7.91,0,0,0-.42.83Z"/><path class="cls-8" d="M6.85.29A.32.32,0,0,1,6.57.06V0h.76A.73.73,0,0,1,7,.27l-.14,0m0,0L7,.31A.75.75,0,0,0,7.39,0H6.5l0,.07a.35.35,0,0,0,.32.26Z"/><path class="cls-8" d="M3.38,9.51h0l-.12,0a1.76,1.76,0,0,1-.58-.36c-.26-.23-.54-.43-.81-.63L1.4,8.15a1.3,1.3,0,0,1-.24-.24.69.69,0,0,1,.06-1,2.07,2.07,0,0,1,.39-.35l1.17-.84.05,0a1.46,1.46,0,0,1,.41-.21l.12,0c.13,0,.21.07.27.23a2,2,0,0,1,.11.77c0,.26,0,.53,0,.78v.19a5.42,5.42,0,0,0,0,.84l0,.18a2.23,2.23,0,0,1,0,.64.55.55,0,0,1-.08.21.34.34,0,0,1-.29.18m0,0a.38.38,0,0,0,.32-.19.6.6,0,0,0,.08-.23,3.06,3.06,0,0,0,0-.83,5.44,5.44,0,0,1,0-.84c0-.32,0-.65.05-1a2.09,2.09,0,0,0-.11-.78.32.32,0,0,0-.31-.25l-.13,0a1.51,1.51,0,0,0-.42.22l-1.23.88a2.12,2.12,0,0,0-.4.35.73.73,0,0,0-.06,1,1.33,1.33,0,0,0,.25.25c.43.33.88.63,1.29,1a1.79,1.79,0,0,0,.59.37l.13,0Z"/><path class="cls-8" d="M14.23,8.67h0a1.16,1.16,0,0,1-.46-.14,3.47,3.47,0,0,1-.84-.62A2.5,2.5,0,0,1,12.36,7a5.31,5.31,0,0,0-.83-1.5,1.57,1.57,0,0,1-.18-.33c-.05-.12-.07-.2,0-.29a.26.26,0,0,1,.24-.12h0a1.28,1.28,0,0,1,.59.2A3.24,3.24,0,0,1,13,5.7c.4.49.74.87,1.06,1.2l.18.18.33.33a1.11,1.11,0,0,1,.24.4.67.67,0,0,1-.06.53.63.63,0,0,1-.4.31h0l-.11,0m0,0,.14,0a.71.71,0,0,0,.49-.89,1.17,1.17,0,0,0-.25-.42c-.16-.18-.34-.34-.51-.51-.37-.38-.72-.78-1.06-1.19a3.21,3.21,0,0,0-.83-.76,1.33,1.33,0,0,0-.6-.21h0a.3.3,0,0,0-.27.13.31.31,0,0,0,0,.33,1.57,1.57,0,0,0,.19.33A5.25,5.25,0,0,1,12.32,7a2.55,2.55,0,0,0,.57.95,3.47,3.47,0,0,0,.85.63,1.19,1.19,0,0,0,.48.15Z"/><path class="cls-8" d="M20.48,6.61v0c-.15,0-.29-.09-.46-.3a1.51,1.51,0,0,1-.29-.6.38.38,0,0,1,.18-.45A2,2,0,0,1,20.58,5a8.51,8.51,0,0,1,.89-.11h0l.19,0a.18.18,0,0,1,.12.08.21.21,0,0,1,0,.16,1.24,1.24,0,0,1-.2.45,2.9,2.9,0,0,1-.8.82.65.65,0,0,1-.36.14v0m0,0a.69.69,0,0,0,.38-.15,2.94,2.94,0,0,0,.81-.83,1.29,1.29,0,0,0,.21-.46.23.23,0,0,0-.18-.28l-.2,0h0a8.49,8.49,0,0,0-.9.11,2,2,0,0,0-.68.22.42.42,0,0,0-.2.49,1.55,1.55,0,0,0,.3.62.67.67,0,0,0,.49.31Z"/><path class="cls-9" d="M2.56,7.69v0a.32.32,0,0,1-.28-.18.35.35,0,0,1,0-.13.48.48,0,0,1,.12-.25A.55.55,0,0,1,2.51,7l0,0a.25.25,0,0,1,.13,0c.12,0,.19.14.19.27a.63.63,0,0,1-.07.28.27.27,0,0,1-.23.18v0m0,0h0a.3.3,0,0,0,.26-.21.68.68,0,0,0,.07-.3c0-.16-.08-.31-.23-.31a.29.29,0,0,0-.15,0,.77.77,0,0,0-.2.15.54.54,0,0,0-.13.27.39.39,0,0,0,0,.15.36.36,0,0,0,.32.2Z"/></g></svg>