<svg data-v-423bf9ae="" xmlns="http://www.w3.org/2000/svg" viewBox="0 0 120.15305499343377 60" class="font"><!----><!----><!----><g data-v-423bf9ae="" id="3b37d095-a227-41de-8ec0-54a0000ca29d" fill="white" transform="matrix(5.102040717026833,0,0,5.102040717026833,-0.51020531415611,-12.34693797078544)"><path d="M2.04 14.18L2.04 14.18Q1.20 14.18 0.65 13.82L0.65 13.82L0.65 13.82Q0.10 13.45 0.10 12.75L0.10 12.75L0.10 12.75Q0.10 12.29 0.36 12.01L0.36 12.01L0.36 12.01Q0.62 11.72 1.04 11.72L1.04 11.72L1.04 11.72Q1.37 11.72 1.57 11.90L1.57 11.90L1.57 11.90Q1.76 12.08 1.84 12.29L1.84 12.29L1.84 12.29Q1.92 12.49 1.92 12.54L1.92 12.54L1.92 12.54Q1.51 12.84 1.51 13.23L1.51 13.23L1.51 13.23Q1.51 13.50 1.68 13.68L1.68 13.68L1.68 13.68Q1.85 13.86 2.14 13.86L2.14 13.86L2.14 13.86Q2.59 13.86 2.85 13.25L2.85 13.25L2.85 13.25Q3.11 12.64 3.11 11.14L3.11 11.14L3.11 3.21L1.82 3.01L1.82 2.70L5.88 2.70L5.88 3.01L4.59 3.21L4.59 11.14L4.59 11.14Q4.59 12.12 4.40 12.78L4.40 12.78L4.40 12.78Q4.21 13.43 3.65 13.80L3.65 13.80L3.65 13.80Q3.09 14.18 2.04 14.18L2.04 14.18ZM11.52 14.18L11.52 14.18Q9.25 14.18 8.14 13.28L8.14 13.28L8.14 13.28Q7.03 12.38 7.03 10.85L7.03 10.85L7.03 10.85Q7.03 9.38 8.10 8.58L8.10 8.58L8.10 8.58Q9.17 7.77 10.91 7.69L10.91 7.69L10.91 7.64L10.91 7.64Q9.17 7.42 8.34 6.81L8.34 6.81L8.34 6.81Q7.50 6.20 7.50 4.87L7.50 4.87L7.50 4.87Q7.50 3.70 8.45 3.06L8.45 3.06L8.45 3.06Q9.39 2.42 11.09 2.42L11.09 2.42L11.09 2.42Q12.22 2.42 12.98 2.97L12.98 2.97L12.98 2.97Q13.75 3.51 13.75 4.42L13.75 4.42L13.75 4.42Q13.75 4.89 13.49 5.15L13.49 5.15L13.49 5.15Q13.23 5.40 12.89 5.40L12.89 5.40L12.89 5.40Q12.54 5.40 12.31 5.19L12.31 5.19L12.31 5.19Q12.07 4.98 12.07 4.58L12.07 4.58L12.07 4.58Q12.66 4.31 12.66 3.70L12.66 3.70L12.66 3.70Q12.66 3.26 12.28 3.00L12.28 3.00L12.28 3.00Q11.90 2.74 11.24 2.74L11.24 2.74L11.24 2.74Q10.29 2.74 9.72 3.30L9.72 3.30L9.72 3.30Q9.16 3.86 9.16 4.80L9.16 4.80L9.16 4.80Q9.16 6.15 9.95 6.78L9.95 6.78L9.95 6.78Q10.74 7.42 12.26 7.50L12.26 7.50L12.26 7.81L12.26 7.81Q10.61 7.91 9.78 8.68L9.78 8.68L9.78 8.68Q8.95 9.45 8.95 10.85L8.95 10.85L8.95 10.85Q8.95 11.79 9.30 12.47L9.30 12.47L9.30 12.47Q9.66 13.15 10.27 13.50L10.27 13.50L10.27 13.50Q10.88 13.86 11.63 13.86L11.63 13.86L11.63 13.86Q12.77 13.86 13.48 13.17L13.48 13.17L13.48 13.17Q14.20 12.47 14.20 11.17L14.20 11.17L14.20 11.17Q14.20 10.65 14.04 10.07L14.04 10.07L13.50 9.98L13.50 9.98Q12.87 9.86 12.50 9.86L12.50 9.86L12.50 9.86Q11.90 9.86 11.50 10.04L11.50 10.04L11.50 10.04Q11.10 10.22 11.10 10.63L11.10 10.63L11.10 10.63Q11.10 10.82 11.23 10.92L11.23 10.92L11.23 10.92Q11.35 11.02 11.55 11.02L11.55 11.02L11.55 11.02Q11.73 11.02 11.91 10.92L11.91 10.92L11.91 10.92Q12.10 10.82 12.18 10.64L12.18 10.64L12.18 10.64Q12.52 10.72 12.69 10.93L12.69 10.93L12.69 10.93Q12.87 11.13 12.87 11.41L12.87 11.41L12.87 11.41Q12.87 11.75 12.62 12.00L12.62 12.00L12.62 12.00Q12.38 12.25 12.01 12.25L12.01 12.25L12.01 12.25Q11.48 12.25 11.13 11.79L11.13 11.79L11.13 11.79Q10.78 11.33 10.78 10.65L10.78 10.65L10.78 10.65Q10.78 10.11 11.05 9.65L11.05 9.65L11.05 9.65Q11.31 9.18 11.82 8.91L11.82 8.91L11.82 8.91Q12.33 8.64 13.02 8.64L13.02 8.64L13.02 8.64Q13.69 8.64 14.59 8.78L14.59 8.78L14.59 8.78Q15.29 8.90 15.76 8.90L15.76 8.90L15.76 8.90Q16.42 8.90 16.82 8.70L16.82 8.70L16.82 8.70Q17.22 8.50 17.22 8.13L17.22 8.13L17.22 8.13Q17.22 7.94 17.10 7.83L17.10 7.83L17.10 7.83Q16.98 7.73 16.79 7.73L16.79 7.73L16.79 7.73Q16.59 7.73 16.41 7.83L16.41 7.83L16.41 7.83Q16.24 7.92 16.16 8.12L16.16 8.12L16.16 8.12Q15.81 8.04 15.64 7.83L15.64 7.83L15.64 7.83Q15.47 7.63 15.47 7.35L15.47 7.35L15.47 7.35Q15.47 7.01 15.71 6.76L15.71 6.76L15.71 6.76Q15.96 6.51 16.32 6.51L16.32 6.51L16.32 6.51Q16.86 6.51 17.19 6.92L17.19 6.92L17.19 6.92Q17.51 7.34 17.51 7.98L17.51 7.98L17.51 7.98Q17.51 10.18 15.41 10.18L15.41 10.18L15.41 10.18Q14.81 10.18 14.42 10.12L14.42 10.12L14.42 10.12Q14.53 10.68 14.53 11.14L14.53 11.14L14.53 11.14Q14.53 12.59 13.72 13.38L13.72 13.38L13.72 13.38Q12.91 14.18 11.52 14.18L11.52 14.18ZM19.81 14.18L19.81 14.18Q18.97 14.18 18.42 13.82L18.42 13.82L18.42 13.82Q17.86 13.45 17.86 12.75L17.86 12.75L17.86 12.75Q17.86 12.29 18.12 12.01L18.12 12.01L18.12 12.01Q18.38 11.72 18.80 11.72L18.80 11.72L18.80 11.72Q19.14 11.72 19.33 11.90L19.33 11.90L19.33 11.90Q19.53 12.08 19.61 12.29L19.61 12.29L19.61 12.29Q19.68 12.49 19.68 12.54L19.68 12.54L19.68 12.54Q19.28 12.84 19.28 13.23L19.28 13.23L19.28 13.23Q19.28 13.50 19.45 13.68L19.45 13.68L19.45 13.68Q19.61 13.86 19.91 13.86L19.91 13.86L19.91 13.86Q20.36 13.86 20.61 13.25L20.61 13.25L20.61 13.25Q20.87 12.64 20.87 11.14L20.87 11.14L20.87 3.21L19.59 3.01L19.59 2.70L23.65 2.70L23.65 3.01L22.36 3.21L22.36 11.14L22.36 11.14Q22.36 12.12 22.17 12.78L22.17 12.78L22.17 12.78Q21.98 13.43 21.42 13.80L21.42 13.80L21.42 13.80Q20.86 14.18 19.81 14.18L19.81 14.18Z"></path></g><!----><!----></svg>